<svg width="148" height="276" viewBox="0 0 148 276" fill="none" xmlns="http://www.w3.org/2000/svg">
<path d="M70.2241 0C75.4125 47.8646 77.1962 96.0623 77.1814 144.193C98.1865 159.27 119.162 174.398 140.167 189.467C126.09 197.824 112.108 206.35 98.031 214.706C112.515 232.477 126.919 250.314 141.381 268.1C143.364 270.564 145.496 272.918 147.294 275.53C125.683 255.332 104.233 234.956 82.6732 214.699C94.2193 206.187 105.706 197.587 117.26 189.075C103.789 180.438 90.3706 171.734 76.8779 163.141C76.3672 199.77 74.1986 236.392 70.2315 272.807C69.4766 269.809 69.3878 266.708 68.9437 263.659C64.7027 227.888 62.7191 191.888 61.9716 155.887C41.2552 141.914 20.6942 127.725 0 113.722C15.158 105.447 30.316 97.1651 45.5332 88.994C30.3308 77.3072 15.1358 65.5983 0 53.8227C22.1819 47.0505 44.3341 40.1376 66.4938 33.2765C67.6262 22.1745 68.6032 11.0354 70.2241 0ZM24.876 61.1649C35.0528 69.2545 45.1113 77.4775 55.2808 85.5671C57.849 84.716 60.4691 84.0573 63.0522 83.2801C63.6073 71.7932 64.2364 60.2989 65.2134 48.8342C51.7947 53.0234 38.3168 57.0349 24.876 61.1649ZM27.1408 115.987C38.7831 122.263 50.3293 128.732 61.905 135.149C61.8754 120.154 62.1196 105.144 62.7857 90.156C50.9362 98.8082 38.8719 107.187 27.1408 115.987Z" fill="black"/>
</svg>
