<svg width="249" height="260" viewBox="0 0 249 260" fill="none" xmlns="http://www.w3.org/2000/svg">
<path d="M13.7871 0.349036C16.9338 -0.47763 19.7604 0.335703 21.5338 3.0957C22.1738 6.08237 18.2138 4.0957 16.6804 4.04237C15.6004 2.90904 14.7204 1.6157 13.7871 0.349036Z" fill="#D8AE01"/>
<path d="M22.12 0.442361C25.96 -0.250972 29.88 0.0956955 33.76 0.0290288C100.893 0.0823621 168.013 0.0690288 235.147 0.0290288C237.187 0.0423621 239.2 0.295695 241.213 0.615695C243.44 0.322362 245.827 -0.517639 247.96 0.615695C248.16 72.8024 247.96 145.016 248.093 217.202C226.613 216.962 205.107 217.682 183.64 216.869C161.333 217.669 138.987 216.896 116.653 217.202C115.813 215.389 114.373 214.402 112.333 214.269C112.787 215.042 113.707 216.576 114.16 217.336C76.2533 216.789 38.32 217.376 0.399999 217.189C0.493332 178.349 0.146667 139.496 0.586667 100.656C4.42667 106.736 5.05333 114.016 5.98667 120.962C6.82667 120.802 8.49333 120.482 9.33333 120.309C10.1867 123.762 11.2667 127.136 12.5067 130.469C13.2133 130.309 14.6267 129.989 15.3333 129.842C19.72 134.389 21.2533 141.096 26.28 145.109C23.64 137.829 18.7733 131.496 16.4 124.136C16.7467 117.696 15.2267 111.256 12.5067 105.429C12.08 107.896 11.9067 110.456 10.8933 112.789C6.94667 105.789 2.77333 98.7224 0.506668 90.9757C0.160001 84.109 0.533334 77.2157 0.360001 70.349C1.16 70.7757 2.76 71.6557 3.56 72.0957C-0.68 67.029 0.733333 60.2824 0.413333 54.2024C8.82667 58.509 16.2533 64.4557 24.5067 69.0024C17.6533 62.269 9.2 57.1624 0.466667 53.2157C1.02667 48.3757 -1.25333 42.389 2 38.469C2.08 39.4557 2.25333 41.429 2.33333 42.4157C3.02667 41.2424 3.69333 40.069 4.38667 38.909C8.68 40.829 12.8533 43.0024 17.2133 44.7757C17.52 44.4157 18.1467 43.6957 18.4667 43.3357L18.7867 42.9757C21.6133 47.869 27.3467 49.4957 31.8 52.4824C28.9467 49.389 24.8533 47.8557 21.96 44.829C20.1733 42.709 18.6933 40.349 17 38.149C17.36 39.4424 18.0933 42.0424 18.4667 43.3357C14.1733 43.4024 10.2267 40.6424 7.38667 37.6157C8.06667 31.6824 15.5067 38.3757 17.8933 34.189C14.3333 33.8557 10.76 33.6557 7.24 32.949C5.57333 34.909 4.30667 37.389 1.76 38.349C1.77333 37.1757 1.81333 34.8424 1.84 33.669C0.920001 31.7757 0.306667 29.789 0 27.6957C1.12 28.3757 2.22667 29.0824 3.30667 29.8157C4.22667 27.8824 3.13333 24.1357 0.199999 26.3357C0.413333 24.429 0.64 22.509 0.866666 20.589C2.2 20.9357 3.54667 21.269 4.89333 21.6157C4.74667 20.629 4.48 18.6424 4.33333 17.6557C5.36 16.5624 6.38667 15.4557 7.4 14.3624C8.08 18.9624 5.82667 24.6024 9.14667 28.4557C9.44 25.2157 9.37333 21.949 8.69333 18.749L9.65333 18.8824C9.65333 19.7757 9.65333 21.549 9.65333 22.4424C10.32 21.8157 11.68 20.589 12.3467 19.9624C20.6267 22.6824 27.4933 28.0957 34.5333 33.0024C34.6933 32.549 35.0133 31.6157 35.1867 31.1624C28.9467 28.189 24.16 22.8957 17.7333 20.229C14.4133 19.229 12.84 16.0024 11.0267 13.3624C13.12 13.7224 15.1867 14.1757 17.2933 14.509C15.5867 11.7224 12.2133 11.069 9.46667 9.80236C11.1867 9.24236 13.0133 9.13569 14.76 8.65569C16.5067 9.96236 18.3467 11.149 20.3867 11.9757C19 10.2424 17.52 8.58903 16.04 6.94903C19.7067 5.4157 23.4933 4.24236 27.24 2.92236C25.8667 2.5757 24.4533 2.53569 23.0533 2.42903C22.8267 1.93569 22.36 0.949028 22.12 0.442361ZM39.5333 0.949028C39.9333 3.0557 38.6133 4.72236 37.8267 6.4957C38.4667 6.02903 39.7333 5.09569 40.36 4.62903C42.7867 6.09569 45.0533 7.80236 47.4133 9.36236C46.3067 5.4557 42.2933 3.5757 39.5333 0.949028ZM233.6 3.21569C236.387 5.0557 239.16 6.8957 242.053 8.5757C242.28 6.56236 242.053 4.40236 240.533 2.92236C238.213 2.7757 235.907 3.01569 233.6 3.21569ZM243.493 2.9757C244.147 3.92236 244.147 3.92236 243.493 2.9757V2.9757ZM217 7.10903C216.013 9.78903 217.533 12.4424 218.027 15.0424C219.733 14.0957 221.427 13.109 223.107 12.109C221.107 10.469 219.68 7.69569 217 7.10903ZM235.28 6.78903C233.853 8.96236 238.28 12.149 239.427 9.48236C239.307 7.72236 237 5.61569 235.28 6.78903ZM214.387 17.5757C213.8 19.789 214.547 20.5357 216.613 19.8424C217.213 17.589 216.48 16.8424 214.387 17.5757ZM142.293 18.2157C142.213 20.349 142.227 22.469 142.307 24.589C145.267 23.4024 144.787 19.6157 142.293 18.2157ZM39.2267 22.8557C39.2933 27.309 43.28 20.9357 39.2267 22.8557V22.8557ZM74.44 23.0557C72.8933 24.9757 76.1467 27.3357 77.4133 25.1757C79 23.229 75.7333 20.8957 74.44 23.0557ZM222.173 23.149C222.853 23.989 222.853 23.989 222.173 23.149V23.149ZM19.96 27.0157C20.0667 28.8824 20.92 29.229 22.52 28.0424C22.4 26.1624 21.5467 25.8157 19.96 27.0157ZM41.1467 32.189C40.2267 33.7357 42.3333 36.309 43.9867 35.4557C44.9733 33.9224 42.8667 30.9624 41.1467 32.189ZM227.307 38.8557C229.827 37.869 231.533 35.6157 231.48 32.829C229.8 34.6157 228.373 36.6424 227.307 38.8557ZM73.32 34.2157C90.2267 74.1624 107.293 114.056 124.12 154.042C141.547 114.309 157.96 74.109 175.293 34.3224C141.307 34.0824 107.307 34.309 73.32 34.2157ZM43.08 38.1357C42.4533 40.309 43.2267 41.0157 45.36 40.269C45.9733 38.109 45.2133 37.389 43.08 38.1357ZM235.8 38.9624C235.867 43.4024 239.8 36.9624 235.8 38.9624V38.9624ZM214.813 42.5357C201.08 74.949 187.04 107.242 173.267 139.642C172.04 142.589 170.693 145.509 168.96 148.189C165.24 159.949 159.48 170.962 154.867 182.376C174.933 182.416 194.987 182.336 215.053 182.429C215.187 138.509 215.067 94.6024 215.08 50.6957C215.053 48.5357 214.907 45.709 217.333 44.7624C216.587 43.9224 215.707 43.2024 214.813 42.5357ZM33.3333 42.4024C33.28 89.069 33.24 135.736 33.32 182.389C53.44 182.389 73.56 182.376 93.6667 182.416C89.5333 172.909 85.5067 163.349 81.3333 153.856C80.32 151.989 80.2667 149.842 81.0133 147.882C79.36 147.829 78.2933 147.082 77.8267 145.642C66.8133 119.602 55.44 93.6957 44.4933 67.6157C46.7733 69.2557 48.7733 71.229 50.92 73.029C51.4533 71.4024 52 69.7757 52.5467 68.149C50.7467 67.389 48.96 66.629 47.1867 65.8557C46.3333 66.029 44.6267 66.3757 43.7733 66.549C40.4667 58.4424 37.2667 50.2424 33.3333 42.4024ZM17.84 53.4824C19.84 54.229 22.5067 51.309 21.6533 49.349C19.56 48.2157 17.0267 51.5757 17.84 53.4824ZM9.82667 68.789C8.10667 70.1357 10.4533 72.869 12.1333 71.6157C13.9333 70.309 11.4533 67.6157 9.82667 68.789ZM20.7733 82.0024C19.0267 82.0957 17.4267 84.5224 18.6133 86.029C20.9733 87.789 23.7733 82.7357 20.7733 82.0024ZM220.413 161.896C218.88 166.016 224.867 161.509 220.413 161.896V161.896ZM237.813 163.376C237 165.496 237.707 166.216 239.92 165.536C240.707 163.402 240 162.682 237.813 163.376ZM111.88 187.442C115.12 189.136 119.12 192.109 122.267 188.616C119.36 185.856 115.133 184.442 111.88 187.442ZM211.12 186.842C210.507 189.042 211.253 189.816 213.36 189.189C213.947 186.989 213.2 186.216 211.12 186.842ZM239.64 206.282C237.28 208.562 237.973 212.322 237.667 215.282C241.187 214.096 242.893 210.669 244.84 207.802C243.267 206.816 241.547 204.456 239.64 206.282ZM220.693 215.936C223.573 215.416 225.84 213.469 227.467 211.122C226.813 210.509 225.493 209.256 224.84 208.629C222.187 210.109 220.867 212.962 220.693 215.936ZM152.56 212.789C150.493 214.256 153.227 217.176 155.04 215.776C157.067 214.322 154.36 211.416 152.56 212.789Z" fill="#D8AE01"/>
<path d="M101.88 226.602C103.067 226.522 104.267 226.442 105.453 226.376C105.507 229.456 105.52 232.536 105.547 235.616C104.88 235.669 103.533 235.789 102.867 235.842L102.92 237.522C103.573 237.549 104.88 237.616 105.533 237.656C105.467 244.682 105.44 251.722 105.547 258.762C104.667 258.736 102.88 258.696 101.987 258.669C101.96 247.976 102.187 237.282 101.88 226.602Z" fill="#D8AE01"/>
<path d="M167.187 227.909C169.827 226.202 176.2 224.709 175.48 229.856C173.16 229.749 170.84 229.562 168.547 229.282C168.533 229.842 168.493 230.976 168.48 231.536C170.693 231.522 172.893 231.509 175.107 231.509C175.04 232.282 174.907 233.842 174.853 234.629C168.307 235.136 161.747 234.762 155.2 234.789C154.227 239.922 155.387 245.109 154.973 250.282C161.6 250.269 168.213 250.336 174.84 250.456C174.693 251.229 174.373 252.749 174.227 253.509C166.693 253.762 159.147 253.562 151.613 253.509C151.733 248.309 151.787 243.109 151.453 237.922L154.04 238.802C152.173 236.762 151.307 234.296 151.56 231.576C156.16 231.562 160.76 231.562 165.36 231.629C166.307 230.896 167.267 230.149 168.213 229.416C162.293 230.069 156.333 229.416 150.413 229.936C150.2 230.922 149.747 232.896 149.533 233.882C147.653 231.802 146.467 229.309 146.267 226.496C153.213 227.069 160.573 225.162 167.187 227.909Z" fill="#D8AE01"/>
<path d="M239.226 226.536C240.44 226.522 241.68 226.509 242.906 226.509C242.2 237.042 243.2 247.616 242.52 258.109C241.733 258.376 240.16 258.922 239.373 259.189C239.453 254.216 239.533 249.216 238.386 244.336C239.36 243.896 241.306 243.016 242.28 242.576C241.013 241.896 239.826 241.096 238.72 240.202C233.266 243.496 226.293 240.869 220.213 241.736C220.24 236.656 220.266 231.562 220.146 226.482C220.973 226.482 222.626 226.482 223.453 226.482C223.4 230.482 223.373 234.482 223.413 238.482C228.733 238.442 234.04 238.429 239.36 238.496C239.386 234.509 239.346 230.522 239.226 226.536Z" fill="#D8AE01"/>
<path d="M0.519531 226.509C4.5462 226.509 8.57287 226.522 12.5995 226.429C15.7062 230.336 18.8395 234.216 21.7995 238.242C24.8529 234.309 27.9195 230.376 31.0395 226.496C35.0795 226.509 39.1062 226.509 43.1329 226.522C42.9462 237.309 43.1595 248.082 43.0262 258.869C42.1595 258.816 40.4262 258.709 39.5595 258.656C39.7329 249.029 39.8529 239.389 39.5062 229.776C37.2929 229.749 35.0929 229.736 32.8795 229.722C29.1595 234.309 25.7729 239.176 21.7862 243.536C17.9062 239.096 14.5062 234.242 10.7062 229.736C8.5462 229.749 6.3862 229.762 4.2262 229.789C3.77287 239.402 4.35953 249.029 3.91953 258.642C3.09287 258.709 1.45286 258.869 0.639531 258.949C0.532865 248.136 0.759531 237.322 0.519531 226.509Z" fill="#D8AE01"/>
<path d="M47.373 226.576C48.293 226.562 50.133 226.522 51.053 226.496C50.7864 237.256 50.9864 248.016 50.9464 258.776C50.0664 258.749 48.3197 258.709 47.4397 258.682C47.3731 247.989 47.6264 237.282 47.373 226.576Z" fill="#D8AE01"/>
<path d="M52.3462 226.469C53.2529 226.496 55.0529 226.576 55.9596 226.616C55.6929 237.269 55.8129 247.949 55.9062 258.616C55.0396 258.682 53.2796 258.829 52.4129 258.896C52.1196 248.082 52.7596 237.269 52.3462 226.469Z" fill="#D8AE01"/>
<path d="M60.3467 226.496C61.2 226.496 62.8934 226.482 63.7467 226.482C63.6267 235.829 63.52 245.189 63.8267 254.522C65.5867 255.549 67.32 256.656 68.64 258.242C65.9067 258.656 63.1333 258.762 60.3733 258.869C60.3333 248.082 60.3867 237.282 60.3467 226.496Z" fill="#D8AE01"/>
<path d="M65.4131 226.482C66.2531 226.482 67.9464 226.482 68.7998 226.482C68.5998 234.496 68.8398 242.509 68.7464 250.522C76.7198 250.509 84.6931 250.509 92.6664 250.509C92.7198 251.616 92.7731 252.722 92.8264 253.842C83.6798 253.722 74.5464 253.842 65.4131 253.776C65.4531 244.669 65.4798 235.576 65.4131 226.482Z" fill="#D8AE01"/>
<path d="M96.9863 226.669C97.8797 226.602 99.6797 226.496 100.573 226.442C100.48 237.322 100.573 248.202 100.52 259.096C98.5197 259.042 96.5197 258.709 97.1197 256.216C97.0263 246.362 97.2663 236.509 96.9863 226.669Z" fill="#D8AE01"/>
<path d="M109.773 226.509C120.533 226.522 131.293 226.509 142.067 226.509C142.08 227.322 142.107 228.976 142.12 229.789C131.333 229.696 120.56 229.816 109.773 229.709C109.773 228.909 109.773 227.309 109.773 226.509Z" fill="#D8AE01"/>
<path d="M180.214 228.176C181.467 226.282 183.854 226.589 185.814 226.496C190.427 226.442 195.08 226.362 199.68 226.896C203.267 226.469 206.907 226.322 210.52 226.576L210.88 228.016L210 229.536C201.467 230.202 192.894 229.309 184.374 229.909C181.2 231.616 182.507 235.896 182.187 238.829C182.72 244.042 181.027 249.802 183.374 254.656C188.387 256.389 194 254.229 198.934 256.602C199.827 256.309 201.627 255.709 202.52 255.416C205.12 255.336 207.707 255.256 210.307 255.162C210.147 256.322 209.987 257.469 209.84 258.629C200.947 257.989 192.014 259.349 183.08 258.602C180.174 258.016 178.48 255.016 178.974 252.176C179.28 244.176 178.08 235.989 180.214 228.176Z" fill="#D8AE01"/>
<path d="M215.014 226.496C215.894 226.496 217.654 226.482 218.534 226.482C218.28 234.056 218.387 241.629 218.48 249.202C217.614 249.616 215.88 250.416 215.014 250.816C215.08 242.709 215.04 234.602 215.014 226.496Z" fill="#D8AE01"/>
<path d="M244.24 226.482C245.147 226.482 246.974 226.496 247.88 226.509C247.134 231.442 249.12 236.989 246.44 241.456C246.92 242.109 247.4 242.776 247.88 243.442C247.68 248.749 247.854 254.069 247.587 259.376C246.867 259.082 245.427 258.482 244.694 258.189C243.694 247.656 245.094 237.042 244.24 226.482Z" fill="#D8AE01"/>
<path d="M32.8935 232.402C34.0935 231.109 36.0935 231.416 37.6535 230.909C38.1735 240.202 37.8002 249.509 37.9335 258.816C37.1202 258.816 35.4935 258.816 34.6935 258.816C34.5735 251.389 34.7468 243.962 34.7068 236.549C30.2268 241.802 26.1868 247.416 21.8268 252.776C17.5068 247.362 13.4535 241.696 8.84018 236.509C9.01351 243.949 8.92018 251.389 9.05351 258.829C8.20018 258.816 6.50684 258.816 5.65351 258.816C5.64017 249.589 5.69351 240.376 5.69351 231.149C6.68017 231.229 8.65351 231.389 9.64017 231.469C14.2402 235.829 17.3868 241.496 21.8002 246.056C25.8668 241.816 29.0135 236.802 32.8935 232.402Z" fill="#D8AE01"/>
<path d="M109.387 231.616C114.627 231.536 119.867 231.616 125.107 231.482C125.387 240.509 124.947 249.549 125.373 258.562C124.64 258.442 123.173 258.189 122.44 258.069C121.147 250.389 121.96 242.576 121.733 234.829C117.893 234.816 114.04 235.029 110.213 234.722C110 233.949 109.6 232.402 109.387 231.616Z" fill="#D8AE01"/>
<path d="M126.92 231.522C132.053 231.669 137.2 231.589 142.347 231.536C142.187 232.336 141.853 233.936 141.693 234.749C137.827 234.989 133.947 234.816 130.067 234.856C130.133 242.949 130.133 251.042 130.08 259.136C129.333 258.976 127.827 258.642 127.08 258.482C126.653 249.509 127.08 240.509 126.92 231.522Z" fill="#D8AE01"/>
<path d="M184.2 231.749C192.907 231.336 201.64 231.749 210.347 231.469C210.453 232.242 210.653 233.762 210.76 234.536C202.973 235.282 195.12 234.616 187.307 234.896C187.307 240.042 187.253 245.189 187.4 250.336C194.933 250.136 202.48 250.482 210.027 250.189C209.907 250.896 209.667 252.309 209.547 253.029C201.187 254.216 192.747 253.442 184.347 253.509C183.933 246.269 184.133 239.002 184.2 231.749Z" fill="#D8AE01"/>
<path d="M146.773 232.936C147.546 233.722 149.106 235.282 149.88 236.069C150.16 242.429 149.88 248.816 149.973 255.189C158.133 255.642 166.32 255.322 174.493 255.336C174.52 256.149 174.573 257.802 174.6 258.629C165.293 258.856 155.986 258.562 146.68 258.802C146.626 250.176 146.52 241.549 146.773 232.936Z" fill="#D8AE01"/>
<path d="M161.706 240.882C166.053 240.802 170.4 240.869 174.76 240.802C174.64 241.656 174.413 243.336 174.293 244.189C169.946 244.376 165.6 244.242 161.253 244.309C161.36 243.456 161.586 241.736 161.706 240.882Z" fill="#D8AE01"/>
<path d="M220.226 243.202C225.493 243.522 230.76 243.376 236.026 243.202C236.013 244.042 236 245.749 236 246.602C231.786 246.642 227.586 246.629 223.386 246.629C223.386 250.136 223.546 253.656 223.346 257.162C222.08 257.442 219.733 256.816 220.066 255.109C221.373 251.202 220 247.189 220.226 243.202Z" fill="#D8AE01"/>
<path d="M72.8001 256.522C78.8267 253.949 85.9467 256.162 92.4001 255.322C92.4534 256.176 92.5734 257.896 92.6267 258.749C85.2001 258.429 77.6934 259.229 70.3067 258.389C70.0801 257.496 69.6267 255.709 69.3867 254.816C70.2401 255.242 71.9467 256.096 72.8001 256.522Z" fill="#D8AE01"/>
</svg>
