<svg width="294" height="71" viewBox="0 0 294 71" fill="none" xmlns="http://www.w3.org/2000/svg">
<path d="M112.269 0.0138615C112.537 0.00924083 112.805 0.0046207 113.078 0C112.99 0.510587 112.752 0.965724 112.392 1.33769C111.682 2.58759 110.656 3.62031 109.973 4.88177C109.624 5.46628 109.714 6.16863 109.702 6.81553C109.739 8.1717 109.755 9.52557 109.737 10.8794C107.942 12.5868 106.595 14.6823 104.959 16.5305C102.85 18.8732 101.166 21.5971 98.8044 23.7088C98.772 24.3557 99.3265 24.5706 99.8533 24.7346C101.131 24.358 102.482 24.5659 103.795 24.5752C105.326 24.9287 106.916 24.6768 108.475 24.7415C108.908 25.5224 109.383 26.2779 109.822 27.0542C110.063 27.0611 110.305 27.0657 110.548 27.0727C110.848 26.5713 111.156 26.0769 111.463 25.5802C111.927 24.8894 112.405 24.2032 112.946 23.5679C117.382 23.6464 121.818 23.5632 126.254 23.6164C129.024 23.9699 131.833 23.8359 134.619 23.7874C134.636 23.4893 134.654 23.1959 134.673 22.9002C136.322 22.9579 137.983 22.8147 139.626 23.0527C140.328 23.1428 141.028 22.8286 141.733 22.9857C142.657 23.1659 143.614 23.0665 144.531 23.3045C146.906 23.4292 149.29 23.2721 151.663 23.4223C152.806 23.6718 153.987 23.5147 155.138 23.7296C155.895 23.8705 156.658 24.023 157.434 24.023C158.836 24.0022 160.193 24.4389 161.593 24.4805C162.609 24.5036 163.626 24.4735 164.642 24.4758C164.788 24.6861 164.934 24.8963 165.081 25.1066C165.553 25.9568 166.181 26.7053 166.719 27.5116C167.071 28.2948 166.643 29.1358 166.297 29.8405C165.315 30.0761 164.312 30.2032 163.346 30.4989C164.026 30.3996 164.696 30.2378 165.375 30.1293C164.984 30.3072 164.594 30.4827 164.208 30.663C163.545 30.8316 162.903 31.0719 162.263 31.3075C161.831 31.4069 161.373 31.46 160.939 31.4877C161.514 31.1504 162.166 30.9494 162.836 30.9286C162.947 30.8732 163.166 30.7646 163.275 30.7092C162.392 30.8316 161.535 31.0811 160.731 31.4646C160.863 31.497 161.128 31.5617 161.262 31.594C161.255 31.6541 161.242 31.7789 161.235 31.8412C160.883 31.8851 160.537 31.9429 160.2 32.0376C159.165 32.2502 158.153 32.5667 157.198 33.0218C156.884 33.0472 156.57 33.0703 156.26 33.0911C155.748 33.3037 155.237 33.5139 154.726 33.7265C154.599 33.745 154.345 33.7819 154.218 33.8004C153.361 34.0476 152.495 34.244 151.64 34.4935C150.926 34.8886 150.117 34.9833 149.316 34.9255C148.731 35.0711 148.156 35.2813 148.202 36.0045C148.731 36.2471 149.265 36.4873 149.791 36.7438C150.036 36.7623 150.284 36.7831 150.533 36.8062C151.6 37.7026 153.072 37.7627 154.216 38.532C155.052 38.6059 155.845 38.9363 156.461 39.5116C156.796 39.5254 157.129 39.5324 157.469 39.5416C157.97 39.7403 158.471 39.939 158.97 40.1492C159.562 40.3641 160.156 40.572 160.752 40.78C161.096 40.8655 161.443 40.9463 161.794 41.0226C161.736 40.2856 161.586 39.5624 161.422 38.8462C161.593 38.8347 161.935 38.8092 162.106 38.7977C163.113 38.2062 164.208 37.758 165.398 37.8019C165.92 37.2937 166.542 36.9101 167.292 36.9148C167.711 36.2032 168.203 35.5378 168.743 34.914C168.757 34.1654 169.136 33.5532 169.674 33.0588C169.758 32.3426 170.081 31.698 170.589 31.1897C170.612 30.4596 171.026 29.8913 171.449 29.3391C171.622 28.6553 171.645 27.8166 172.472 27.5971C172.421 26.7515 172.717 25.996 173.357 25.4416C173.459 25.0488 173.489 24.6145 173.789 24.3095C174.618 24.2032 175.466 24.2864 176.293 24.1247C177.446 23.9375 178.625 24.1039 179.775 23.8751C180.025 23.7874 180.274 23.6996 180.528 23.6095C182.379 23.5609 184.248 23.7342 186.08 23.4154C187.69 23.2837 189.312 23.4292 190.925 23.3091C191.916 23.1127 192.926 23.0296 193.931 22.9117C195.248 22.7454 196.544 23.3137 197.856 23.0041C199.626 22.9048 201.379 22.6021 203.158 22.6414C203.935 22.4658 204.718 22.3133 205.501 22.1678C205.963 22.0731 206.43 22.0084 206.903 21.9552C207.566 21.8051 208.246 21.7566 208.925 21.7034C209.325 21.7542 209.729 21.7843 210.138 21.8143C210.214 22.2833 210.32 22.7477 210.378 23.219C210.244 23.7111 210.006 24.1663 209.791 24.626C209.768 24.7461 209.72 24.9841 209.694 25.1043C209.528 26.5367 209.211 27.9437 208.795 29.3229C208.493 29.554 208.186 29.7781 207.876 29.9953C207.62 30.0877 207.358 30.157 207.095 30.2032C206.21 30.3487 205.418 30.7877 204.577 31.0719C204.108 31.2221 203.66 31.4138 203.214 31.6102C202.819 31.7511 202.43 31.8967 202.035 32.0214C201.774 32.167 201.518 32.3102 201.282 32.4858C201.127 33.3152 201.224 34.1701 201.181 35.0087C201.063 36.2332 200.541 37.3445 200.116 38.4812C199.838 39.1211 199.496 39.7311 199.127 40.3202C199.129 40.5628 199.136 41.048 199.141 41.2906C199.621 41.0641 200.106 40.8354 200.552 40.5397C200.938 40.2994 201.331 40.0707 201.728 39.8466C203.565 38.5043 205.455 37.2359 207.326 35.9375C208.779 35.1982 209.932 33.9737 210.581 32.4743C211.82 30.4989 213.067 28.5259 214.324 26.5598C214.932 25.6195 215.521 24.6699 216.129 23.7273C216.997 22.184 217.843 20.6014 218.996 19.2452C219.31 19.1713 219.626 19.095 219.945 19.0188C220.04 18.6237 220.137 18.231 220.227 17.8336C220.43 17.829 220.638 17.822 220.849 17.8174C220.844 18.0993 220.844 18.3858 220.846 18.6699C220.615 18.7554 220.387 18.8432 220.162 18.9333C219.899 20.2918 220.112 21.745 219.525 23.0272C219.351 23.457 219.504 23.9329 219.527 24.3811C219.948 24.9495 220.507 25.5201 220.594 26.2502C220.283 27.1535 219.626 27.9021 219.248 28.7823C218.64 30.0137 217.646 31.0534 217.265 32.3865C216.953 32.7746 216.63 33.1581 216.313 33.5416C215.863 34.6044 215.239 35.5771 214.678 36.5798C213.897 37.8943 213.331 39.3291 212.464 40.5928C212.102 41.376 211.665 42.1223 211.244 42.8755C210.632 43.9336 210.408 45.2066 209.539 46.1123C209.537 46.2416 209.532 46.4981 209.53 46.6275C209.23 46.9809 208.941 47.3414 208.655 47.7041C208.548 48.0622 208.701 48.5705 208.352 48.8038C207.589 48.9032 207.04 48.2886 206.437 47.9421C205.559 47.3136 204.378 47.1011 203.782 46.1261C203.62 45.2782 203.891 44.4927 204.42 43.8296C204.438 43.6194 204.459 43.4068 204.484 43.1989C204.251 43.2128 204.02 43.2266 203.791 43.2405C202.98 43.8227 202.204 44.4511 201.37 45.001C200.712 45.4307 200.139 45.9759 199.459 46.3733C198.235 47.0295 197.244 48.0183 196.098 48.7923C195.821 48.7876 195.546 48.783 195.273 48.7784C194.277 47.7341 192.914 47.0387 192.212 45.731C191.708 44.6822 192.251 43.6263 192.508 42.5959C192.771 42.0645 193.057 41.5424 193.355 41.0295C193.365 40.78 193.376 40.5328 193.39 40.2856C193.709 39.7149 193.993 39.1234 194.217 38.5089C194.416 38.0237 194.668 37.5617 194.963 37.1296C194.975 37.0025 194.998 36.753 195.01 36.626C195.137 36.4088 195.268 36.1916 195.405 35.9791C195.622 35.4569 195.816 34.9255 196.028 34.4011C194.954 34.3318 193.958 34.7592 192.979 35.1358C192.745 35.152 192.517 35.1681 192.288 35.1866C192.013 35.3899 191.738 35.5932 191.466 35.7965C190.035 35.6995 188.878 36.7068 187.492 36.8501C187.233 36.9055 186.977 36.9679 186.722 37.0395C186.434 37.229 186.145 37.4207 185.865 37.6217C185.158 37.7465 184.456 37.899 183.74 37.959C183.525 38.0676 183.315 38.1785 183.104 38.2917C182.712 38.4604 182.319 38.6313 181.931 38.8023C181.614 38.8254 181.298 38.8462 180.988 38.8693C180.316 39.1697 179.63 39.44 178.941 39.701C177.985 39.9228 177.044 40.2278 176.159 40.6506C175.915 40.6668 175.674 40.6852 175.436 40.7014C175.154 40.8354 174.875 40.9694 174.595 41.1057C173.752 41.3321 172.842 41.5054 172.193 42.1408C171.959 42.552 171.712 42.9563 171.456 43.3583C171.43 43.4808 171.379 43.728 171.354 43.8527C171.171 44.2732 170.998 44.6983 170.823 45.1211C170.411 45.8188 169.975 46.505 169.61 47.2305C169.358 47.8242 169.034 48.3856 168.679 48.9216C168.66 49.0487 168.625 49.2982 168.609 49.4253C167.821 50.4418 167.607 51.7657 166.81 52.7799C166.8 52.907 166.782 53.1588 166.773 53.2859C165.495 54.9493 164.931 57.0125 163.882 58.8076C163.369 59.7734 162.307 60.1938 161.438 60.7622C160.017 61.6124 158.894 62.8785 157.42 63.6455C156.697 63.9481 156.459 64.7337 156.087 65.3505C155.812 65.7826 155.579 66.2377 155.389 66.7113C155.022 67.5846 154.553 68.4117 154.248 69.3105C153.765 70.2 152.94 71.2396 151.79 70.9508C151.099 70.5419 151.954 69.8742 152.197 69.4306C152.213 69.3105 152.247 69.0679 152.264 68.9477C153.541 66.9285 154.269 64.6205 155.468 62.5573C155.473 62.4302 155.48 62.1784 155.484 62.0537C155.701 61.7579 155.921 61.4645 156.138 61.1688C156.242 60.8269 156.353 60.4873 156.466 60.1499C156.773 59.6555 157.039 59.1357 157.259 58.5951C157.464 58.1191 157.704 57.6571 157.954 57.2019C158.127 56.6521 158.328 56.1045 158.652 55.6217C159.125 54.9008 159.312 54.0368 159.798 53.3229C159.885 52.8931 160.024 52.4726 160.246 52.0937C160.743 51.2366 161.073 50.294 161.602 49.453C161.969 48.1962 162.887 47.1727 163.134 45.8766C163.381 45.396 163.658 44.9294 163.972 44.4881C163.979 44.3633 163.998 44.1092 164.007 43.9844C164.166 43.7973 164.331 43.6125 164.497 43.4276C164.504 43.118 164.511 42.8085 164.522 42.5035C164.139 42.388 163.748 42.3071 163.367 42.2078C163.157 42.7646 162.954 43.3214 162.757 43.8828C162.704 43.5478 162.656 43.2128 162.605 42.8778C162.625 43.2728 162.651 43.6702 162.676 44.0676C162.309 44.3564 161.944 44.6498 161.59 44.9548C161.041 46.0383 159.844 46.5466 159.229 47.5724C158.111 47.7387 157.034 47.3506 155.969 47.0757C155.112 46.5859 154.149 46.3572 153.19 46.1677C152.437 45.5624 151.503 45.2713 150.547 45.232C150.256 45.0518 149.967 44.8762 149.681 44.6983C149.438 44.6082 149.2 44.5181 148.962 44.4234C148.83 44.4095 148.569 44.3818 148.438 44.3679C147.613 43.9452 146.737 43.6402 145.836 43.4369C145.319 43.1643 144.81 42.8755 144.314 42.5751C143.988 42.5612 143.662 42.5474 143.341 42.5335C142.775 42.1154 142.16 41.7711 141.513 41.4985C140.735 41.2143 139.982 40.8701 139.235 40.5166C139.111 40.4981 138.861 40.4588 138.736 40.4404C138.376 40.2324 138.016 40.0314 137.658 39.8304C136.9 39.6479 136.165 39.3637 135.541 38.8924C135.414 38.8716 135.16 38.8277 135.033 38.8069C134.691 38.7076 134.349 38.6198 134.003 38.5528C133.483 39.3961 133.074 40.2971 132.665 41.1981C132.457 41.7295 132.254 42.2609 132.055 42.7969C131.956 42.9286 131.859 43.0626 131.764 43.1966C131.554 43.8966 131.221 44.5551 130.777 45.135C130.77 45.2759 130.759 45.5578 130.752 45.6987C130.567 45.9944 130.387 46.2902 130.202 46.5836C129.936 47.2189 129.71 47.8704 129.527 48.5358C129.257 49.0141 128.987 49.49 128.728 49.9752C128.613 50.7353 128.243 51.4214 127.804 52.0429C127.543 52.0406 127.286 52.0383 127.03 52.0383C126.016 50.7953 124.893 49.6517 123.846 48.4411C123.837 47.7595 123.768 47.0757 123.865 46.4011C124.567 44.8369 125.399 43.3214 125.958 41.6972C126.224 41.2698 126.499 40.8447 126.769 40.4172C127.104 39.1928 127.711 38.0722 128.37 36.9933C128.474 36.6352 128.587 36.2771 128.696 35.9213C128.971 35.3391 129.257 34.7592 129.581 34.2024C129.581 34.0545 129.581 33.7611 129.581 33.6133C129.865 33.0611 130.225 32.5505 130.678 32.1208C130.701 31.7581 130.724 31.3953 130.745 31.0326C130.971 30.7646 131.198 30.4966 131.429 30.2309C131.429 30.0992 131.427 29.8312 131.427 29.6972C131.815 29.0272 132.425 28.3849 132.371 27.5578C131.029 27.5694 129.685 27.2205 128.356 27.4816C127.973 27.4054 127.587 27.343 127.205 27.2829C126.665 27.5417 126.066 27.5717 125.51 27.3522C125.048 27.3222 124.588 27.2991 124.13 27.2737C123.502 27.4978 122.911 27.8097 122.361 28.1863C121.494 28.2186 120.623 28.1839 119.768 28.3341C118.537 28.5328 117.285 28.4288 116.044 28.4519C115.968 28.5813 115.818 28.8378 115.742 28.9648C115.742 29.0526 115.742 29.2236 115.742 29.3114C115.818 29.4431 115.968 29.7088 116.044 29.8405C116.617 29.8266 117.202 29.8312 117.754 29.6487C118.505 29.6094 119.258 29.5979 120.011 29.5471C121.677 29.1497 123.407 29.554 125.089 29.2652C125.859 29.1266 126.644 29.1451 127.423 29.1404C127.702 29.3322 127.982 29.5216 128.266 29.7111C127.956 30.4989 127.561 31.2475 127.164 31.9937C126.949 32.4304 126.695 32.8439 126.42 33.2436C125.974 33.3822 125.535 33.5347 125.103 33.7011C123.835 34.1077 122.495 33.9321 121.189 34.0314C120.596 34.1978 119.981 34.2278 119.371 34.2671C118.817 34.3895 118.253 34.4519 117.689 34.4866C116.19 34.7176 114.674 34.8401 113.172 35.0156C112.26 35.1566 111.802 35.9606 111.366 36.6722C111.329 36.887 111.25 37.3144 111.213 37.5293C112.218 37.5247 113.244 37.5871 114.224 37.3121C114.45 37.2705 114.679 37.2336 114.912 37.1966C115.372 37.0973 115.818 36.9402 116.28 36.8431C116.823 36.7854 117.37 36.7392 117.906 36.6121C118.366 36.5613 118.828 36.5312 119.293 36.4989C119.674 36.4019 120.055 36.3164 120.441 36.2286C120.824 36.1315 121.217 36.0761 121.612 36.016C123.105 35.7434 124.616 35.5355 126.138 35.5794C126.127 36.2679 126.189 36.9633 126.09 37.6518C125.9 38.3379 125.417 38.8878 124.988 39.4377C124.988 39.5763 124.988 39.8512 124.985 39.9875C124.726 40.2186 124.465 40.4496 124.209 40.6829C123.419 40.6899 122.626 40.6991 121.836 40.7014C121.543 40.8331 121.249 40.9602 120.958 41.0919C119.57 41.3853 118.188 41.6695 116.765 41.7295C116.398 41.8173 116.033 41.8982 115.67 41.9883C114.584 42.284 113.494 42.6236 112.355 42.5682C112.066 42.6606 111.777 42.753 111.491 42.8431C110.73 43.1296 109.956 43.393 109.152 43.5247C107.533 43.8042 106.003 44.7237 104.333 44.5805C103.127 43.6448 101.831 42.7669 100.944 41.4985C100.983 41.0734 101.064 40.6552 101.161 40.2393C102.69 38.6637 103.571 36.5798 105.068 34.9833C105.077 34.8632 105.095 34.6229 105.107 34.5028C105.606 34.1955 106.08 33.8166 106.119 33.1789C106.32 32.9872 106.523 32.7954 106.729 32.606C106.736 32.4789 106.752 32.2271 106.759 32.1C106.535 32.1139 106.311 32.1277 106.089 32.1416C105.733 32.4257 105.366 32.6937 104.994 32.9571C103.702 34.0776 102.388 35.1774 100.96 36.12C99.2803 37.5386 97.3812 38.6544 95.6623 40.0199C93.5945 41.4869 91.5868 43.0349 89.5306 44.5158C88.6527 45.1766 87.821 45.9043 86.8714 46.4634C85.3142 47.3622 84.166 48.8154 82.595 49.6933C82.0335 49.7811 81.5692 49.4022 81.0909 49.1827C80.012 48.2886 78.7136 47.6948 77.6901 46.7245C77.5492 46.7037 77.2673 46.6621 77.1287 46.6413C76.7313 46.2555 76.3316 45.8743 75.9342 45.4908C75.8095 45.4885 75.5576 45.4792 75.4329 45.4769C75.3127 44.9709 75.1302 44.4811 74.9246 44.0075C75.3081 43.3167 75.7425 42.6537 76.1237 41.9629C76.5719 41.5031 76.96 40.9879 77.3043 40.445C77.4544 40.2809 77.6046 40.1192 77.7571 39.9598C78.3901 38.6706 79.6215 37.8273 80.3031 36.5705C80.7097 35.9999 81.0748 35.4038 81.5114 34.8585C81.5715 34.6714 81.7471 34.7315 81.8834 34.7569C82.9946 33.001 84.4363 31.4762 85.5845 29.7411C86.3955 28.9025 87.1417 28.0037 87.8395 27.0704C88.5949 25.9083 89.6947 25.0211 90.4086 23.8312C90.5472 23.8151 90.8221 23.7827 90.9584 23.7666C90.9677 23.6279 90.9885 23.3507 90.9977 23.2121C91.3974 22.8494 91.7624 22.4473 92.0512 21.9899C92.1783 21.9691 92.4324 21.9275 92.5595 21.9067C92.5803 21.6757 92.6011 21.447 92.6265 21.2206C93.5737 20.2571 94.4147 19.199 95.3435 18.2194C96.1452 17.2213 97.1432 16.3896 97.834 15.3038C98.0697 15.2622 98.3053 15.2206 98.5433 15.1813C98.5687 14.9364 98.5941 14.6892 98.6219 14.4443C99.9341 12.9403 101.223 11.4154 102.579 9.94836C103.014 9.52557 103.668 9.51632 104.227 9.38695C104.594 8.65456 105.449 8.44664 105.976 7.86905C106.477 7.33767 106.874 6.72311 107.293 6.12704C107.829 5.43856 108.353 4.74084 108.912 4.07083C109.437 3.48169 109.672 2.71004 110.12 2.06776C110.67 1.2291 111.46 0.589138 112.269 0.0138615ZM137.267 28.9695C137.251 29.219 137.235 29.4708 137.219 29.7226C137.052 30.1062 136.71 30.4481 136.745 30.8894C136.671 31.5085 137.424 31.6056 137.801 31.9152C138.704 31.9383 139.621 31.9845 140.513 31.7812C140.753 31.6934 140.998 31.6056 141.243 31.5224C141.712 31.4023 142.177 31.259 142.641 31.1204C143.096 31.0326 143.556 30.9795 144.016 30.931C144.254 30.8501 144.496 30.7715 144.739 30.6953C145.129 30.5336 145.524 30.3765 145.917 30.2147C146.502 30.0969 147.095 30.0392 147.689 29.9652C147.92 29.8474 148.156 29.7319 148.391 29.6164C148.629 29.6048 148.867 29.5956 149.11 29.5863C149.493 29.4431 149.879 29.3114 150.27 29.1797C151.004 29.2144 151.753 29.115 152.266 28.5236C148.826 27.5671 145.198 28.1886 141.689 27.8744C140.612 28.0499 139.524 27.9414 138.459 27.745C138.062 28.1539 137.676 28.5721 137.267 28.9695ZM192.048 28.4358C190.722 28.8724 189.301 28.4704 187.963 28.8239C187.568 28.8747 187.173 28.9163 186.78 28.9579C184.322 29.3576 181.822 29.3969 179.336 29.3391C178.456 29.9352 178.045 30.9402 177.423 31.7604C177.409 31.9983 177.4 32.2363 177.393 32.4743C177.16 32.6753 176.929 32.8809 176.702 33.0888C176.7 33.4954 176.698 33.9044 176.7 34.3133C177.439 34.1932 178.169 34.0245 178.9 33.8559C179.563 33.7912 180.161 33.4931 180.69 33.0981C180.937 33.0726 181.187 33.0472 181.441 33.0241C182.367 32.8462 183.303 32.6568 184.153 32.2155C184.278 32.1716 184.53 32.0861 184.657 32.0422C185.068 31.9752 185.482 31.9244 185.898 31.869C186.103 31.7627 186.313 31.6587 186.526 31.5594C186.947 31.4369 187.351 31.2636 187.73 31.0442C188.097 31.0026 188.467 30.9725 188.839 30.9425C189.578 30.5983 190.347 30.321 191.14 30.1246C191.828 30.1293 192.452 29.8451 193.013 29.4708C193.233 29.3668 193.452 29.2606 193.677 29.1566C194.139 29.152 194.601 29.1427 195.07 29.1381C195.026 28.9186 194.94 28.482 194.899 28.2625C193.947 28.1655 192.97 28.1585 192.048 28.4358ZM94.0566 30.0415C93.0216 30.8131 92.5456 32.1 91.5406 32.9109C90.7482 33.7311 90.1752 34.7361 89.325 35.5008C88.6873 36.09 88.1837 36.8154 87.9226 37.6494C88.4355 37.5686 88.9646 37.4623 89.3342 37.0719C89.5168 37.0326 89.6993 36.9933 89.8818 36.9563C90.8267 36.0507 91.9773 35.4061 93.0077 34.6044C93.9804 34.0407 94.819 33.2713 95.8286 32.7654C96.7389 32.1069 97.6053 31.3653 98.6519 30.924C98.6657 30.6953 98.6935 30.2402 98.705 30.0114C97.9449 30.0068 97.1871 29.9999 96.427 30.0368C95.6369 30.0068 94.8421 29.9213 94.0566 30.0415Z" fill="#050A0E"/>
<path d="M62.6959 8.13471C63.5739 8.0885 64.4911 7.97991 65.3205 8.34033C66.0275 8.97336 66.8315 9.48395 67.5639 10.087C68.3817 10.6022 69.396 10.9903 69.8488 11.9098C69.5854 12.0554 69.322 12.2032 69.0586 12.3534C69.0633 12.767 69.0679 13.1805 69.0771 13.5964C68.5527 13.7951 68.0328 14.0007 67.5153 14.2109C67.0902 14.4859 66.6536 14.74 66.2077 14.978C65.6925 15.142 65.2212 15.4146 64.7891 15.7358C63.7841 15.7889 62.7791 15.745 61.7764 15.7381C61.5523 15.6041 61.3305 15.4701 61.1087 15.3361C60.6328 15.3107 60.1569 15.2875 59.6809 15.2668C58.3663 16.1886 56.8692 16.8054 55.5061 17.6557C54.9054 17.9514 54.3186 18.2795 53.7618 18.6514C52.0914 19.4023 50.5897 20.4674 49.0233 21.4054C47.6948 21.7819 46.5789 22.616 45.3822 23.2698C44.1669 23.9929 42.9656 24.7415 41.6995 25.3745C39.9275 26.1485 38.4096 27.4007 36.6005 28.1007C35.6464 28.8123 34.6622 29.4893 33.5232 29.8728C32.703 30.3349 31.8666 30.7669 31.0418 31.222C30.8963 31.2197 30.6098 31.2128 30.4666 31.2082C30.4712 31.5154 30.4758 31.825 30.4804 32.1346C31.4531 32.1415 32.4535 32.2548 33.4007 31.9613C35.7758 31.8828 38.1508 31.9336 40.5258 31.8966C42.4665 31.9914 44.3726 31.5547 46.3133 31.6448C48.1292 31.3121 49.9775 31.5293 51.805 31.3606C53.3252 31.0626 54.887 31.3676 56.4049 31.0719C56.9478 30.9841 57.4977 30.9656 58.0452 30.9032C58.6921 30.4573 59.406 30.0807 60.2031 30.0022C61.3236 30.9656 62.5827 31.7557 63.6547 32.7792C64.3917 32.8785 65.1195 33.0541 65.8565 33.165C65.8657 32.2409 65.9096 31.3029 65.6994 30.3972C65.399 28.877 65.3713 27.3337 65.4014 25.7904C66.1915 24.1085 68.1368 23.6672 69.3775 22.4311C69.8141 22.4219 70.2485 22.4173 70.6851 22.4127C71.1541 23.718 70.8261 25.125 70.9069 26.4766C70.9924 28.0707 70.5488 29.6302 70.6643 31.2243C70.9693 31.222 71.272 31.222 71.5769 31.2243C71.8542 30.8778 72.1314 30.5335 72.411 30.1893C73.9635 29.2166 75.151 27.7842 76.6736 26.7677C77.8611 25.7072 79.104 24.7022 80.4348 23.8312C82.8329 23.8428 85.2311 23.8428 87.6292 23.8197C87.5322 24.1732 87.4421 24.5289 87.352 24.8847C87.3451 25.0118 87.3312 25.2659 87.3243 25.393C86.1598 26.9964 84.8476 28.4866 83.6647 30.0784C83.0501 30.9494 82.1999 31.6286 81.6362 32.5366C81.5322 32.5759 81.3243 32.6521 81.2226 32.6914C80.8507 33.7703 79.9935 34.5536 79.2889 35.4153C78.6466 36.2078 77.9951 36.9979 77.2465 37.6933C77.1194 37.922 76.9924 38.1531 76.8676 38.3841C76.7429 38.398 76.4933 38.4234 76.3709 38.4349C76.2323 39.0772 75.8765 39.6317 75.4306 40.1053C74.6474 41.0179 73.8572 41.9305 73.0948 42.8639C72.6443 43.3768 72.1152 43.8157 71.704 44.361C71.6763 44.4626 71.6185 44.6636 71.5885 44.763C70.5812 46.0083 69.463 47.1588 68.4903 48.4318C67.654 49.3791 66.9054 50.3979 66.0598 51.3359C65.2997 52.17 64.7083 53.1542 63.828 53.8773C63.8003 54.0413 63.7425 54.3717 63.7148 54.5381C63.4422 54.5658 63.1696 54.5958 62.8969 54.6259C62.8738 54.9123 62.8507 55.2011 62.8276 55.4899C62.6728 55.5015 62.3633 55.5246 62.2085 55.5361C62.183 55.7718 62.1576 56.0098 62.1345 56.25C61.6309 56.726 61.2497 57.3267 60.7137 57.7656C60.1984 57.8095 59.6832 57.8026 59.1703 57.8211C58.7984 58.0891 58.4056 58.3294 57.9875 58.5165C56.9131 58.9531 56.0375 59.8403 54.8269 59.9143C54.619 59.9997 54.411 60.0852 54.2054 60.173C53.54 60.7321 52.87 61.2866 52.1931 61.8318C52.1607 62.1576 52.133 62.4834 52.1053 62.8114C51.835 62.823 51.5647 62.8322 51.2967 62.8461C51.1742 63.1072 51.0541 63.3728 50.9316 63.6385C50.2801 64.2762 49.7788 65.0432 49.2058 65.7479C49.1665 65.9928 49.1273 66.24 49.088 66.4895C48.8177 66.5126 48.5474 66.538 48.2794 66.5634C48.2586 66.7252 48.217 67.0509 48.1962 67.2126C47.5216 67.7371 47.0064 68.5319 46.1146 68.7028C45.8142 68.2107 45.7264 67.6447 45.7426 67.0786C45.8997 67.0717 46.2139 67.0602 46.371 67.0532C47.8566 64.8561 49.8204 63.0378 51.3383 60.8661C52.7199 58.9555 54.4318 57.3012 55.6887 55.3005C56.3402 54.314 57.2943 53.5585 57.8419 52.498C57.9782 52.4749 58.2508 52.4287 58.3871 52.4033C58.3941 52.1469 58.401 51.8927 58.4102 51.6386C59.1103 50.8392 59.6625 49.9128 60.448 49.1873C60.4641 49.0556 60.5011 48.7899 60.5196 48.6559C60.8015 48.5034 61.0856 48.3533 61.3721 48.2077C61.3814 48.076 61.3998 47.8126 61.4091 47.681C62.3194 46.4149 63.5369 45.3914 64.3132 44.0214C65.0802 42.6097 66.2932 41.5285 67.2543 40.2578C68.0744 39.2782 68.7976 38.1554 69.9574 37.5385C69.9782 37.2266 69.999 36.917 70.0198 36.6098C68.7236 36.3926 68.153 35.0803 67.0602 34.5073C66.9608 35.0295 66.8407 35.547 66.7344 36.0668C65.8588 37.2104 64.8931 38.294 63.8373 39.2713C62.324 38.9548 60.776 39.0402 59.2397 39.0795C57.9366 39.4422 56.5689 39.1026 55.2612 39.4145C54.5635 39.5069 53.8542 39.4977 53.1681 39.6617C52.0937 39.7772 51.0102 39.6895 49.9382 39.8396C46.9763 40.1746 43.9567 39.7495 41.0064 40.1723C40.1631 40.2116 39.3152 40.2047 38.4835 40.3664C37.3953 40.5581 36.2632 40.3017 35.1935 40.6321C30.5105 40.7684 25.8251 40.6459 21.1397 40.7083C20.8324 40.8192 20.5275 40.9324 20.2248 41.0572C16.9811 41.2212 13.7604 41.748 10.5028 41.607C10.2626 41.5031 10.0223 41.4014 9.78202 41.3021C9.27605 41.0433 8.76777 40.7892 8.24795 40.5628C7.58256 40.2878 6.9426 39.9528 6.3396 39.5578C6.21022 39.5578 5.95377 39.5578 5.82439 39.5578C5.47553 39.329 5.12897 39.1003 4.78242 38.8693C4.4428 38.7699 4.1078 38.6683 3.76818 38.5736C2.48362 37.989 1.40238 36.9771 0.00693077 36.6537C0.00462042 36.3926 0.00231035 36.1338 0 35.8751C0.13169 35.8566 0.395069 35.8196 0.526759 35.8011C1.69118 34.9694 3.05428 35.7341 4.33652 35.614C4.49594 35.4638 4.65766 35.316 4.81708 35.1658C4.94877 35.1496 5.21215 35.1173 5.34384 35.1034C5.8267 34.9856 6.31187 34.8862 6.79705 34.7892C7.37925 34.4011 7.97301 34.0291 8.67074 33.8951C8.90871 33.8304 9.14898 33.7703 9.38926 33.7172C9.74274 33.5047 10.0985 33.299 10.452 33.0934C10.8425 33.0472 11.2329 33.0056 11.6211 32.9386C12.0901 32.7168 12.5637 32.502 13.0373 32.2894C13.3076 31.5316 13.9707 31.0996 14.7077 30.8778C15.2183 30.619 15.7289 30.3626 16.2487 30.1223C16.9118 29.8751 17.5425 29.5447 18.1455 29.1774C18.3627 29.152 18.5821 29.1288 18.7993 29.1057C19.3977 28.7014 20.0446 28.3803 20.7192 28.1285C20.9248 28.0245 21.1328 27.9228 21.3384 27.8212C22.3018 27.44 23.2144 26.9502 24.157 26.5228C25.0904 26.16 25.9776 25.691 26.8855 25.2683C27.5139 24.9818 28.1424 24.6884 28.7823 24.4319C30.0253 23.9098 31.2729 23.3853 32.4304 22.6899C32.5482 22.6714 32.7792 22.6345 32.8971 22.616C33.4123 22.3295 33.9436 22.0684 34.482 21.8258C35.1173 21.5671 35.7226 21.239 36.3141 20.8878C37.0395 20.6383 37.7465 20.3334 38.4234 19.9706C39.4353 19.6241 40.3225 19.0118 41.316 18.626C41.8936 18.2725 42.4966 17.9606 43.1388 17.7365C43.7927 17.3692 44.4557 17.0157 45.1488 16.7292C45.4238 16.5698 45.6941 16.4081 45.9667 16.2463C46.401 16.05 46.8308 15.849 47.2674 15.6595C47.5562 15.5001 47.8473 15.3407 48.1384 15.1813C48.3718 15.0912 48.6074 15.0011 48.8454 14.9133C50.3448 13.8944 51.8766 12.9264 53.4638 12.0507C53.5932 12.0484 53.8496 12.0438 53.979 12.0415C54.3833 11.7296 54.7969 11.4316 55.2081 11.1266C55.3606 11.1243 55.6632 11.1174 55.8134 11.1151C56.4857 10.7454 57.1742 10.4058 57.8835 10.1101C58.9116 9.6064 59.8681 8.76774 61.0695 8.78391C61.6979 8.84629 62.2085 8.47202 62.6959 8.13471Z" fill="#050A0E"/>
<path d="M280.144 14.8209C280.821 14.174 281.604 13.5317 282.602 13.571C282.567 14.1948 282.442 14.807 282.269 15.4054C281.893 15.7011 281.528 16.0084 281.16 16.3088C281.139 16.4174 281.093 16.6345 281.072 16.7431C280.192 16.8517 279.843 17.7088 279.391 18.3465C279.037 19.0419 278.584 19.6819 278.06 20.2572C277.891 20.3773 277.727 20.4997 277.565 20.6245C277.244 20.6245 276.923 20.6245 276.609 20.6268C276.6 20.7377 276.581 20.9595 276.572 21.0704C276.017 21.3731 275.407 21.5348 274.814 21.7219C274.195 22.1008 273.61 22.5467 272.917 22.7824C272.457 23.0388 272.002 23.3045 271.554 23.5794C271.438 23.5979 271.207 23.6326 271.092 23.6487C270.14 24.1547 269.308 24.8547 268.359 25.363C267.813 25.8713 267.183 26.271 266.413 26.2641C265.947 26.9179 265.24 27.1998 264.452 27.1905C264.114 27.9229 263.382 28.2648 262.615 28.3318C262.275 29.0226 261.522 29.1589 260.834 29.2421C260.661 29.4269 260.492 29.6118 260.326 29.7966C259.055 30.1778 257.934 30.9125 256.765 31.5178C256.222 31.9429 255.529 31.9706 254.875 32.0191C254.873 32.264 254.871 32.5089 254.878 32.7561C255.305 33.1119 255.719 33.4908 256.132 33.8697C256.821 33.8951 257.444 34.1493 257.803 34.7731C258.909 35.1543 259.875 35.8613 260.764 36.6121C261.076 36.6884 261.393 36.7554 261.707 36.8616C261.885 37.7188 261.568 38.5736 261.499 39.4284C262.146 39.4677 262.756 39.6964 263.313 40.0291C263.574 40.9186 264.043 41.8012 264.962 42.1477C265.129 42.3325 265.295 42.5197 265.466 42.7114C265.623 42.723 265.942 42.7461 266.099 42.7576C266.245 42.9494 266.397 43.1435 266.552 43.3352C267.333 43.4022 268.017 43.7973 268.402 44.4904C269.181 44.4996 269.872 44.7977 270.309 45.4584C270.454 45.4839 270.745 45.5347 270.891 45.5601C271.658 46.2509 272.647 46.609 273.464 47.2328C274.088 47.3067 274.603 47.6094 274.883 48.187C276.847 48.8339 278.485 50.1854 280.382 51.001C280.957 51.2043 281.449 51.5716 281.796 52.0799C282.461 52.1862 283.177 52.3525 283.404 53.0872C283.623 53.1126 283.845 53.1357 284.076 53.1542C285.455 54.0714 287.079 54.6305 288.281 55.7996C289.346 55.952 290.117 56.7653 291.072 57.1927C291.095 57.3036 291.136 57.5277 291.159 57.6386C291.899 57.7033 292.153 58.4079 292.474 58.974C292.904 59.7618 293.042 60.6444 293.008 61.5362C292.67 61.5246 292.335 61.5131 292.007 61.5015C290.97 60.7714 289.759 60.3556 288.715 59.644C288.581 59.6394 288.315 59.6324 288.184 59.6278C287.759 59.3136 287.329 59.011 286.904 58.706C286.765 58.7037 286.488 58.6967 286.349 58.6921C284.848 57.5762 283.126 56.8023 281.495 55.9012C281.047 55.6332 280.599 55.3698 280.151 55.1157C279.453 55.0279 278.882 54.619 278.383 54.1592C277.302 53.8265 276.406 53.1196 275.389 52.6506C274.299 52.1307 273.266 51.5023 272.18 50.9779C271.362 50.4696 270.516 50.0098 269.706 49.4946C269.574 49.4877 269.308 49.4715 269.174 49.4646C268.675 49.1088 268.183 48.7461 267.719 48.3487C267.578 48.3418 267.296 48.3279 267.155 48.3187C266.658 47.9398 266.145 47.5817 265.628 47.2397C265.381 47.1565 265.14 47.0711 264.902 46.9856C264.794 46.9532 264.574 46.8885 264.466 46.8562C263.622 46.3364 262.731 45.902 261.878 45.403C261.333 45.1026 260.797 44.7861 260.258 44.4765C259.438 44.1762 258.704 43.6933 257.907 43.3422C256.811 42.723 255.783 41.9675 254.594 41.5355C253.304 40.2139 251.669 39.3476 250.038 38.5274C249.016 37.9313 247.951 37.4184 246.942 36.8085C246.505 36.4874 245.955 36.5243 245.447 36.492C245.262 36.7761 245.082 37.0603 244.902 37.3445C244.888 37.4669 244.862 37.7095 244.848 37.832C243.987 38.9918 243.368 40.2994 242.755 41.6025C242.54 41.8566 242.323 42.1107 242.111 42.3672C242.106 42.5012 242.097 42.7715 242.092 42.9078C241.716 43.4323 241.376 43.9844 241.11 44.5713C240.81 45.1026 240.466 45.604 240.105 46.0915C240.098 46.6875 239.768 47.1658 239.278 47.4823C237.765 46.3618 236.014 45.4307 234.983 43.7904C234.937 42.9679 235.623 42.3487 236.074 41.7342C236.088 41.5101 236.104 41.2883 236.125 41.0688C236.723 40.3918 237.132 39.5832 237.462 38.7492C237.502 38.1624 237.379 37.5224 237.668 36.9818C238.065 36.1293 238.772 35.45 239.056 34.5397C239.225 33.8951 239.664 33.3961 240.117 32.9294C240.366 31.4416 241.554 30.3464 241.961 28.9002C242.222 28.4959 242.49 28.0939 242.771 27.7011C242.783 27.5786 242.808 27.3338 242.82 27.2113C243.169 26.6776 243.49 26.1254 243.77 25.5525C244.331 24.4042 245.054 23.3415 245.629 22.2002C246.142 21.8813 246.669 22.0685 247.106 22.4266C247.388 22.4104 247.674 22.3965 247.965 22.3804C249.324 22.117 250.714 22.3041 252.087 22.1632C252.239 22.5998 252.396 23.0319 252.567 23.4639C252.135 24.0507 251.749 24.6699 251.41 25.3145C250.957 26.3657 250.34 27.3337 249.716 28.2902C249.714 28.6992 249.712 29.1058 249.721 29.5147C250.682 29.2028 251.509 28.616 252.396 28.1493C253.568 27.6618 254.67 27.0242 255.797 26.442C256.049 26.3287 256.308 26.2179 256.567 26.107C257.682 25.4832 258.886 25.0326 259.967 24.3442C260.09 24.3211 260.332 24.2772 260.455 24.2564C261.448 23.5217 262.627 23.1197 263.761 22.6553C264.385 22.3411 264.983 21.9807 265.535 21.551C265.665 21.544 265.921 21.5325 266.048 21.5278C266.492 21.2437 266.94 20.9641 267.397 20.6938C267.973 20.5691 268.53 20.3542 268.987 19.9684C269.682 19.3584 270.812 19.4716 271.307 18.6053C271.713 18.559 272.12 18.5244 272.536 18.492C273.28 17.7366 274.624 17.7574 275.082 16.7385C275.419 16.72 275.761 16.7085 276.105 16.7015C276.597 16.4127 277.078 16.1008 277.54 15.7612C277.792 15.752 278.046 15.745 278.305 15.7404C278.721 15.4216 279.146 15.112 279.573 14.8024C279.716 14.807 280 14.8163 280.144 14.8209Z" fill="#050A0E"/>
<path d="M281.666 18.6422C281.89 18.2702 282.343 18.291 282.72 18.1894C283.055 18.8409 283.394 19.5409 283.205 20.2987C282.861 20.3403 282.519 20.3726 282.181 20.3981C282.029 20.3126 281.726 20.1439 281.576 20.0584C281.59 19.5848 281.585 19.1089 281.666 18.6422Z" fill="#050A0E"/>
<path d="M223.009 24.0576C223.337 24.0622 223.667 24.0669 224.002 24.0715C224.051 24.3533 224.109 24.6352 224.18 24.9148C224.554 24.9702 224.936 24.9841 225.319 25.0049C225.719 25.5085 226.024 26.0792 226.301 26.6614C226.717 27.2875 226.867 28.0337 226.897 28.7777C227.01 29.1496 227.114 29.5239 227.234 29.8982C227.32 30.1269 227.412 30.3579 227.509 30.5867C227.535 30.8316 227.562 31.0788 227.595 31.3237C227.83 31.9105 227.981 32.5274 228.082 33.1512C228.732 34.1654 228.073 35.6117 229.048 36.4272C229.644 35.9397 229.97 35.2305 230.326 34.5674C230.346 34.4265 230.383 34.1469 230.402 34.006C231.391 33.1627 231.689 31.8527 232.34 30.7784C232.973 29.5031 234.064 28.3965 234.145 26.904C234.276 26.8947 234.542 26.8739 234.674 26.8647C235.023 25.8458 235.727 25.0257 236.531 24.3326C238.054 24.3695 239.576 24.2817 241.099 24.3395C241.321 24.6237 241.552 24.9055 241.783 25.1874C241.665 25.3583 241.549 25.527 241.441 25.698C241.177 26.6706 240.604 27.5047 240.168 28.3988C239.921 28.8447 239.653 29.279 239.35 29.6879C239.225 30.0599 239.105 30.4319 238.983 30.8038C238.437 31.4808 238.169 32.3264 237.643 33.0148C237.384 33.3498 237.224 33.7403 237.095 34.1354C236.497 34.6898 236.21 35.4338 236.236 36.247C236.102 36.2563 235.831 36.2747 235.697 36.2863C235.473 37.0949 235.134 37.8735 234.563 38.4996C233.796 40.7175 232.075 42.4688 231.365 44.7052C231.125 44.964 230.882 45.2181 230.642 45.4722C229.247 45.7888 227.817 45.7749 226.396 45.7287C225.918 45.0125 225.483 44.22 225.52 43.3282C225.566 42.4734 225.275 41.6648 224.882 40.9232C224.859 40.8192 224.811 40.6159 224.788 40.5119C224.608 39.4145 224.423 38.3148 224.293 37.2081C223.857 37.1896 223.42 37.1873 222.99 37.1712C222.833 37.9151 222.385 38.5389 221.974 39.1581C221.965 39.4238 221.96 39.6871 221.96 39.9551C221.817 39.9644 221.532 39.9829 221.392 39.9944C221.336 40.1353 221.225 40.4218 221.17 40.5628C220.414 42.0599 219.576 43.557 218.45 44.8138C217.898 44.8369 217.346 44.8785 216.806 44.9871C215.556 45.2135 214.26 45.7587 212.998 45.3105C212.744 44.6521 212.753 43.9659 213.003 43.3098C213.134 43.1088 213.271 42.9055 213.407 42.7045C213.594 42.2955 213.788 41.8889 213.973 41.4777C214.426 40.6205 214.881 39.7634 215.232 38.8577C215.898 38.0468 216.2 37.0187 216.81 36.1708C217.208 35.3067 217.746 34.5189 218.208 33.6895C219.22 31.8181 220.465 30.0622 221.216 28.0568C221.627 27.4954 221.948 26.8739 222.14 26.2039C222.623 25.5825 222.926 24.8431 223.009 24.0576Z" fill="#050A0E"/>
<path d="M200.945 55.0348C201.726 54.3301 202.581 53.1518 203.782 53.5284C204.704 53.607 205.457 54.2007 205.956 54.947C206.176 55.9173 205.908 56.9547 206.245 57.9181C206.243 58.1353 206.245 58.3524 206.247 58.5719C205.947 59.496 206.134 60.4641 206.134 61.409C205.988 61.6724 205.711 61.8341 205.515 62.0513C205.711 61.617 205.926 61.1918 206.072 60.7367C205.637 61.4783 205.136 62.1899 204.434 62.6982C203.731 62.6705 203.029 62.652 202.345 62.4926C202.336 62.3378 202.317 62.0259 202.308 61.8711C201.751 61.7625 201.303 61.4367 200.94 61.0163C200.936 59.0224 200.954 57.0286 200.945 55.0348ZM202.417 55.215C202.34 55.5823 202.266 55.952 202.181 56.3193C202.132 57.4699 202.167 58.6204 202.156 59.7733C202.375 60.27 202.539 60.8037 202.858 61.2519C203.29 61.3051 203.734 61.3074 204.17 61.2473C204.406 61.0394 204.526 60.739 204.697 60.4803C204.665 59.0802 204.702 57.6801 204.674 56.28C204.713 55.7879 204.422 55.3813 204.216 54.9655C203.606 54.9863 202.999 55.0463 202.417 55.215Z" fill="#050A0E"/>
<path d="M247.413 54.0322C247.741 53.8219 248.014 53.4292 248.436 53.4338C250.017 53.413 251.615 53.3229 253.166 53.7018C253.147 54.0506 253.131 54.3995 253.115 54.7507C252.343 55.8019 252.249 57.1465 251.699 58.3063C251.449 58.8585 251.22 59.4222 250.932 59.9582C250.738 60.5104 250.61 61.081 250.539 61.6632C250.169 61.9982 249.841 62.3887 249.423 62.6659C249.074 62.6682 248.73 62.6197 248.388 62.5851C248.388 62.257 248.39 61.9312 248.397 61.6078C248.665 61.3814 248.933 61.155 249.206 60.9308C249.259 60.5496 249.319 60.1707 249.395 59.7942C249.529 59.4615 249.666 59.1311 249.806 58.8007C250.197 57.798 250.299 56.6382 251.116 55.855C251.121 55.6378 251.13 55.2012 251.135 54.984C250.606 54.9794 250.081 54.984 249.559 54.9909C249.365 55.1735 249.176 55.356 248.989 55.5385C248.996 55.6933 249.007 56.0006 249.014 56.1554C248.795 56.1276 248.577 56.1022 248.365 56.0768C248.143 55.9936 247.924 55.9151 247.706 55.8388C247.552 55.2451 247.431 54.6444 247.413 54.0322Z" fill="#050A0E"/>
<path d="M179.283 53.6786C180.346 53.473 181.725 53.6809 182.141 54.8384C182.476 55.9705 182.458 57.3497 181.66 58.297C180.965 59.1518 180.223 59.9697 179.533 60.8291C179.516 60.94 179.486 61.1572 179.473 61.2658C180.605 61.3143 181.744 61.2681 182.841 60.947C182.802 61.677 182.397 62.28 181.949 62.8253C180.706 62.7929 179.463 62.8391 178.223 62.816C177.784 62.8507 177.52 62.4441 177.201 62.2223C177.222 62.1091 177.262 61.8873 177.28 61.7741C177.763 61.3559 177.98 60.7806 177.978 60.1476C178.114 60.1407 178.387 60.1291 178.523 60.1222C179.168 58.5419 181.094 57.6593 181.152 55.8272C181.02 55.5731 180.893 55.319 180.773 55.0648C180.42 54.9816 180.073 54.8292 179.713 54.8361C179.038 55.3513 178.59 56.2339 177.636 56.2639C177.65 55.8064 177.571 55.3259 177.724 54.8846C177.948 54.4942 178.264 54.1707 178.567 53.8403C178.747 53.8011 179.105 53.7179 179.283 53.6786Z" fill="#050A0E"/>
<path d="M225.118 53.6232C226.527 53.6625 227.944 53.5493 229.351 53.681C229.418 54.1754 229.429 54.6767 229.452 55.1758C229.224 55.4207 229.002 55.6656 228.78 55.9128C228.711 56.5874 228.808 57.329 228.429 57.932C228.038 58.5882 227.659 59.2605 227.495 60.0136C227.151 60.6259 226.786 61.2589 226.849 61.9913C226.495 62.4488 225.927 62.4626 225.4 62.4973C225.416 61.8111 225.414 61.0949 225.737 60.4665C226.435 59.1126 226.765 57.6086 227.479 56.2616C227.629 55.9567 227.805 55.6425 227.854 55.3028C227.565 55.1157 227.255 54.9702 226.953 54.8177C226.712 54.8154 226.474 54.8154 226.241 54.8154C225.959 55.1966 225.68 55.5801 225.412 55.9705C225.104 55.9682 224.799 55.9682 224.499 55.9705C224.494 55.289 224.504 54.6074 224.534 53.9282C224.679 53.8519 224.973 53.6995 225.118 53.6232Z" fill="#050A0E"/>
</svg>
