<svg width="1920" height="727" viewBox="0 0 1920 727" fill="none" xmlns="http://www.w3.org/2000/svg">
<g clip-path="url(#clip0_99_4)">
<path d="M128.42 290.43C130.57 289.98 132.46 288.38 134.73 288.72C139.26 288.99 143.83 288.17 148.32 289.07C151.54 289.92 154.7 287.34 157.86 288.74C162.16 290.25 166.89 290.59 170.79 293.23C172.46 294.3 173.34 296.25 174 298.12C175.47 302.78 175.55 307.75 176.21 312.55C178.29 317.14 179.67 322.08 180.28 327.13C197.67 331.56 215.08 336.91 230.79 346.13C239.41 350.97 248.01 355.87 256.45 361.05C259.08 362.87 261.78 364.86 263.59 367.63C260.96 369.3 257.89 370.06 255.39 371.93C259.74 375.67 264 379.59 267.76 384C270.82 387.54 272.78 391.91 275.43 395.76C277.29 394.52 278.83 392.2 281.25 392.36C283.64 392.36 286.05 392.35 288.43 392.75C295.32 394.98 301.19 400.26 304.56 406.96C309.85 416.01 309.7 427.49 306.98 437.41C306.14 441.35 302.6 443.96 302.31 448.08C301.68 452.71 299.82 457.11 299.82 461.84C299.97 462.1 300.26 462.62 300.41 462.88C306.57 468.41 315.52 469.01 321.12 475.44C323.77 478.67 323.06 483.2 323.18 487.13C329.46 486.33 335.46 483.54 341.88 483.82C342.52 482.953 343.17 482.087 343.83 481.22C338.84 474.82 333.46 468.77 328.01 462.82C327.43 462.03 326.46 461.36 326.42 460.27C326.93 459.33 328.04 459.13 328.86 458.6C336.99 454.21 345.52 450.41 354.51 448.55C354.79 445.39 354.87 442.22 354.9 439.05C352.48 435.93 351.1 431.19 352.78 427.44C353.473 428.06 354.187 428.653 354.92 429.22C355.08 423.55 358.64 418.98 361.4 414.41C361.473 416.217 361.53 418.027 361.57 419.84C366.85 415.17 372.17 410.03 379.12 408.38C379.03 409.06 378.86 410.41 378.77 411.09C382.05 409.86 385.33 408.39 388.88 408.4C388.38 412.8 388.25 417.27 387.18 421.59C388.93 421.12 390.72 420.89 392.52 420.66C392.333 422.447 391.99 424.2 391.49 425.92C390.83 428.31 391.34 430.88 390.63 433.25C389.99 434.5 389.11 435.58 388.44 436.81C388.2 438.36 389.03 439.83 389.1 441.37C389.14 443.62 388.73 445.92 389.51 448.09C398.15 448.2 406.1 452.15 413.73 456.03C415.82 457.15 418.04 458.12 419.83 459.77C420.34 460.81 419.11 461.71 418.65 462.57C414.44 467.54 409.84 472.15 405.56 477.06C408.2 480.88 412.75 482.07 416.29 484.67C418.26 486.14 420.46 487.37 422.06 489.34C419.02 489.32 415.98 489.21 412.94 489.36C409.68 494.28 406.03 498.91 402.59 503.69C406.6 507.5 410.23 511.73 414.06 515.76C417.2 514.9 421.12 515.09 422.32 518.87C423.02 517.18 423.69 515.46 424.8 514.02C424.86 515.813 424.907 517.607 424.94 519.4C427.67 517.83 430.71 517.03 433.73 516.33C435.84 519.84 437.04 523.83 437.91 527.85C441.31 540.15 442.94 552.99 442.22 565.79C439.18 570.84 434.81 574.82 430.16 578.18C430.97 579.51 432.4 580.81 432.11 582.55C431.35 585.02 429.55 586.96 427.67 588.55C426.37 589.72 424.42 589.22 423.1 590.32C422.44 593.52 423.22 596.87 422.59 600.08C422.1 600.83 421.15 601.05 420.48 601.6C419.9 602.66 420.08 604 419.57 605.09C417.16 610.18 418.18 616.05 417.26 621.48C420.62 627.75 423.01 634.53 425.44 641.24C427.12 644.9 422.6 646.81 420.14 648.12C417.65 645.51 416 642.22 413.8 639.38C410.76 650.86 408.03 662.44 404.88 673.89C403.92 677.35 406.86 680.16 407.19 683.51C408.62 688.56 406.51 693.53 404.95 698.23C403.74 702.26 401.24 705.91 401.14 710.25C402.57 713.43 405.45 715.79 406.33 719.33C405.43 721.95 404.49 724.56 403.2 727H340.59C340.19 725 339.41 723 339.74 720.93C340.58 718.09 343.22 716.23 344.07 713.41C344.34 709.07 343.5 704.77 343.16 700.46C341.72 696.08 338.07 693.03 336.19 688.89C335.05 684.73 337.31 680.81 337.59 676.77C335.8 667.85 335.19 658.72 333.43 649.81C332.27 650.99 330.79 652.64 329 651.83C325.87 650.32 323.81 646.3 324.82 642.72C326 638.46 327.9 634.48 329.44 630.38C329.79 629.18 330.61 628.34 331.49 627.57C330.91 623.42 331.28 619.15 330.17 615.09C329.55 618.9 325.77 620.93 322.38 621C322.06 620.69 321.41 620.06 321.09 619.75C320.203 619.823 319.32 619.94 318.44 620.1C316.89 626.74 316.45 633.61 315.24 640.34C314.04 648.7 312.34 656.96 310.53 665.19C309.19 670.21 308.99 675.46 308.68 680.63C309.98 691.25 312.44 701.78 312.32 712.56C312.68 717.37 312.76 722.21 312.03 727H256.41C252.71 712.24 254.12 696.67 257.13 681.93C257.51 679.24 258.41 676.61 258.39 673.88C257.52 666 255.83 658.21 253.41 650.69C251.91 662.4 251.1 674.18 249.7 685.91C249.42 687.69 249.65 689.59 248.94 691.28C246.827 696.18 244.733 701.087 242.66 706C241.54 708.54 241.72 711.39 241.53 714.11C241.41 718.41 240.84 722.68 240.8 727H108.89C108.03 724.2 107.17 721.42 106.14 718.7C104.83 720.21 103.28 721.53 102.19 723.25C102.03 724.55 102.6 725.79 103.01 727H30.17C30.09 726.62 29.93 725.87 29.85 725.49C26.89 723.4 23.72 720.92 22.76 717.11C22.17 714.56 21.49 712.04 20.99 709.49C20.94 704.49 20.94 699.42 21.89 694.51C21.17 691.46 19.7 688.67 18.91 685.64C17.82 682.06 17.08 678.38 16.02 674.79C10.16 659.81 6.94 643.91 2.99 628.3C2.21 624.16 1.59 620 0.76 615.86C0.0900002 617.5 -0.0799999 619.36 -1.19 620.78C-3.38 620.21 -4.43 617.85 -5.41 615.95C-6.08 612.95 -5.68 609.84 -5.63 606.8C-7.22 607.75 -7.92 609.69 -9 611.17V372.29C-5.4 370.24 -2.05 367.56 1.9 366.28C5.46 365.58 9.1 366.23 12.68 366.41C13.68 366.41 14.43 365.58 15.26 365.11C21.54 360.63 28.29 356.6 35.71 354.71C38.62 353.79 42.29 354.81 44.25 351.77C43.75 351.48 42.75 350.91 42.25 350.62C41.86 346.54 43.08 342.1 45.8 339.14C46.18 340.91 45.43 343.51 46.6 344.8C49.16 343.38 51.27 341.22 53.79 339.71C53.6 340.43 53.24 341.86 53.05 342.57C55.47 340.75 57.56 338.42 60.27 337.05C63.23 337.89 66.31 338.9 69.28 339.33C72.8 335.91 77.69 334.98 82.13 333.57C96.71 329.5 111.61 326.53 126.66 325.48C126.48 324.16 126.53 322.73 125.79 321.58C121.85 314.2 119 305.69 120.29 297.15C121.5 295.44 123.81 294.87 124.5 292.7C125 292.82 125.99 293.07 126.49 293.19C127.12 292.27 127.62 291.22 128.42 290.43ZM340.7 486.31C339.2 487.76 338.14 489.62 336.93 491.31C338.83 491.39 340.01 489.4 341.94 489.41C342.32 490.42 342.9 491.42 344.02 491.56C343.68 490.71 343.13 490 342.57 489.3C341.92 488.32 341.39 487.26 340.7 486.31ZM282.35 630.83C281.79 635.51 282.11 640.25 281.96 644.96C281.59 656.63 281.26 668.32 281.43 680C282.283 683.52 283.103 687.06 283.89 690.62C284.18 691.59 283.81 692.97 284.65 693.68C285.08 688.23 286.36 682.9 287.78 677.65C285.24 665.16 284.96 652.35 283.58 639.69C283.31 635.39 282.63 631.13 283.14 626.83C283.06 628.19 283.06 629.62 282.35 630.83Z" fill="#120C14"/>
<path d="M1854.3 196.52C1858.49 202.04 1862.2 207.89 1866.17 213.57C1871.93 220.67 1878.61 227.05 1883.93 234.49C1890.79 246.88 1894.92 260.5 1899.11 273.96C1901.83 282.46 1902.89 291.38 1903.84 300.22C1905.74 300.54 1907.65 300.82 1909.57 301.18C1922.19 288.29 1931.55 272.71 1941.29 257.64C1949.31 246.43 1961.08 238.86 1972.16 231C1976.65 228.02 1980.09 223.31 1985.32 221.56C1992.05 219.84 1996.12 228.5 1993.55 233.88C1990.6 239.1 1990.34 245.27 1988.72 250.94C1985.84 263.3 1982.26 275.49 1978.1 287.47C1975.87 293.7 1973.21 299.81 1969.61 305.38C1964.79 313.04 1958.51 319.62 1953.24 326.95C1951.76 328.95 1951.45 331.47 1950.86 333.81C1948.7 343.44 1943.44 351.93 1939.64 360.93C1933.95 377.67 1928.54 394.8 1927.78 412.58C1927.64 416.21 1927.56 419.85 1927.04 423.46C1924.78 431.97 1925.64 440.88 1925.42 449.59C1925.05 454.01 1929.71 456.45 1930.89 460.42C1932.49 466.01 1932.65 471.88 1932.69 477.67C1937.43 480.08 1936.93 485.97 1937.73 490.46C1938.1 499.86 1938.15 509.29 1938.15 518.71C1937.37 525.37 1938.58 532 1938.68 538.67C1940.03 550.2 1939.88 561.85 1941.15 573.38C1942.66 597.31 1944.38 621.21 1946.45 645.09C1947.5 655.5 1948.1 666.09 1946.87 676.52C1943.74 693.14 1942.92 710.11 1943.5 727H1907.34C1908.63 713.36 1910.37 699.75 1911.23 686.08C1911.18 677.48 1913.04 668.94 1912.02 660.35C1911.18 654.69 1911.38 648.95 1910.39 643.31C1908.14 623.61 1901.97 604.58 1899.78 584.87C1898.25 575.05 1897.47 565.08 1895.29 555.39C1890.03 576.78 1885.92 598.45 1881.16 619.96C1878.9 630.94 1876.15 641.81 1873.95 652.8C1873.01 656.42 1874.37 660.03 1874.91 663.6C1879.1 684.8 1884.43 705.78 1888.49 727H1851.08C1849.59 717.607 1848.48 708.17 1847.73 698.69C1846.58 690.88 1844.74 683.2 1843.39 675.42C1842.28 662.48 1842 649.46 1842.29 636.47C1842.64 624.8 1842.59 613.08 1844.04 601.49C1845.03 588.14 1846.46 574.84 1847.2 561.49C1848.62 549.59 1847.84 537.51 1849.73 525.68C1850.48 515.82 1854.05 506.31 1853.81 496.38C1853.74 490.09 1854.87 483.87 1854.92 477.59C1856.1 477.25 1857.28 476.913 1858.46 476.58C1858.75 469.88 1860.52 463.39 1863.36 457.35C1862.35 447.98 1861.74 438.56 1860.24 429.25C1859.57 426.71 1858.84 423.95 1856.74 422.2C1853.41 419.42 1853.2 414.73 1851.4 411.06C1850.3 416.84 1846.94 421.76 1842.52 425.53C1841.67 426.57 1839.75 426.67 1838.94 425.58C1831.48 417.27 1828.55 406.2 1825.87 395.64C1827.11 390.18 1828.68 384.81 1830.01 379.38C1831.18 374.25 1830.14 368.97 1830.66 363.79C1830.93 360.59 1831.66 357.46 1832.3 354.31C1827.42 346.68 1824.98 337.83 1820.73 329.88C1816.48 323.83 1810.89 318.84 1806.56 312.83C1800.58 304.86 1795.64 296.13 1791.67 287C1788.76 280.45 1785.89 273.75 1784.73 266.63C1783.07 259.87 1783.83 252.71 1781.54 246.07C1780.59 242.28 1780.41 238.33 1780.05 234.46C1779.59 230.6 1782.48 226.17 1786.68 226.54C1789.38 226.19 1791.66 227.84 1793.69 229.36C1804.52 238.5 1814.96 248.18 1826.66 256.22C1826.37 251.34 1823.95 246.93 1823.01 242.17C1819.68 230.37 1820.8 217.98 1820.84 205.87C1829.25 219.99 1840.75 232.18 1853.92 241.96C1853.62 239.16 1853.24 236.36 1852.68 233.61C1850.92 222.94 1850.58 212.11 1850.75 201.31C1851.96 202.47 1853.01 203.86 1853.73 205.41C1853.93 202.45 1854 199.48 1854.3 196.52Z" fill="#120C14"/>
<path d="M1729.46 241.79C1734.06 239.53 1739.26 239.06 1744.31 238.64C1753.38 238.91 1760.89 244.75 1767.79 250.04C1775.25 255.66 1778.8 265.08 1779.69 274.12C1781.16 285.28 1779.14 297.19 1772.55 306.49C1768.63 310.91 1763.3 313.75 1758.69 317.3C1758.32 320.63 1758.85 323.97 1759.63 327.21C1760.25 327.34 1761.52 327.6 1762.14 327.74C1764.21 329.62 1764.51 332.95 1767.16 334.22C1773.82 337.81 1779.82 342.48 1786.45 346.13C1792.8 349.67 1798.71 354.01 1803.88 359.12C1806.09 361.29 1806.34 364.56 1806.54 367.47C1806.72 374.45 1805.91 381.4 1805.97 388.36C1808.15 390.62 1809.95 393.65 1808.92 396.89C1807.44 400.88 1808.52 405.12 1808.18 409.23C1807.92 414.3 1808.69 419.33 1808.6 424.39C1808.74 432.62 1808.47 440.92 1809.95 449.06C1810.96 458.52 1813.17 467.91 1812.84 477.5C1812.22 489.17 1812.54 500.89 1812.49 512.58C1812.15 518.87 1813.04 525.12 1813.97 531.31C1815.33 535.11 1816.88 538.86 1818.32 542.64V545.18C1815.48 546.66 1812.6 548.07 1809.8 549.62C1812.6 559.56 1815.37 569.51 1818.32 579.41V727H1795.73C1794.62 705.49 1793.6 683.95 1790.99 662.56C1790.52 660 1790.09 656.61 1787.39 655.47C1782.31 653.07 1776.72 652.18 1771.23 651.41C1772.18 663.03 1774.88 674.48 1774.81 686.18C1775.32 699.82 1773.61 713.38 1773.59 727H1746.16C1745.89 725.367 1745.39 725.367 1744.65 727H1712.46C1712.65 715.91 1713.08 704.82 1713.12 693.73C1714.16 683.62 1713.55 673.42 1714.68 663.32C1715 659.63 1714.9 655.92 1714.87 652.23C1710.52 653.43 1705.95 653.91 1701.85 655.9C1699.75 657.05 1696.99 657.22 1695.33 659.03C1693.03 681.62 1690.01 704.24 1690.31 727H1671.82C1666.72 714.65 1668.47 701.07 1668.29 688.07C1663.29 700.83 1659.59 714.08 1654.98 727H1599.65C1593.88 713.9 1587.78 700.94 1582.52 687.61C1576.26 671.65 1571.7 655.05 1568.36 638.24C1565.63 637.613 1562.95 636.837 1560.32 635.91C1559.53 633.15 1558.27 630.51 1558.3 627.58C1557.28 624.95 1553.4 624.63 1552.86 621.68C1551.76 614.49 1551.81 607.02 1553.83 600C1555.65 593.23 1557.3 586.33 1560.35 579.98C1561.74 577 1561.8 573.65 1562.35 570.46C1563.26 561.83 1565.53 553.42 1566.81 544.85C1567.61 539.47 1569.17 534.11 1568.78 528.64C1567.92 525.34 1566.01 522.42 1564.98 519.17C1560.2 507.23 1557.29 494.68 1554.4 482.2C1553.09 476.63 1552.55 470.65 1549.35 465.74C1545.72 460.6 1542.28 455.13 1540.59 449.02C1540.11 445.08 1539.15 440.55 1541.62 437.06C1545.61 430.44 1550.33 424.3 1555.28 418.39C1559.56 413.34 1564.88 408.49 1571.62 407.31C1576.74 408.16 1581.25 410.94 1586.17 412.45C1585.14 407.19 1587.92 401.82 1592.63 399.4C1598.27 399.14 1603.75 400.84 1608.77 403.24C1612.54 402.72 1616.15 401.27 1619.98 401.05C1625.43 400.44 1630.76 402.13 1635.85 403.86C1638.81 404.9 1641.38 407.18 1644.65 407.17C1648.64 407.38 1652.68 408.09 1656.28 409.9C1659.27 412.58 1660.29 416.78 1659.99 420.69C1665.81 418.75 1671.85 417.55 1677.84 416.35C1677.97 410.85 1677.92 405.35 1677.89 399.85C1676.4 398.81 1674.81 397.7 1674.21 395.9C1673.7 393.75 1675.1 391.85 1675.86 389.98C1677.43 387.17 1676.73 383.84 1676.9 380.77C1677.1 373.44 1676.21 365.81 1678.76 358.78C1680.06 354.93 1683.78 352.69 1687.31 351.17C1692.97 348.93 1698.13 345.69 1703.38 342.67C1703.53 340.88 1703.47 338.85 1705.06 337.64C1709.2 333.87 1715.71 333.66 1719.31 329.12C1722.34 324.88 1721.62 319.29 1721.36 314.4C1718.45 311.36 1716.05 307.11 1711.59 306.33C1707.4 301.18 1706.46 294.24 1705.91 287.82C1704.71 281.49 1706.07 275.14 1706.8 268.85C1707.65 262.98 1711.3 258.14 1715 253.72C1718.97 248.86 1723.78 244.56 1729.46 241.79ZM1699.59 396.13C1699.12 406.84 1697.75 417.53 1697.91 428.26C1701.06 435.53 1706.39 442.78 1705.31 451.07C1703.31 458.22 1700.33 465.11 1696.41 471.42C1693.99 474.54 1695.39 478.68 1695.04 482.3C1694.68 487.96 1695.62 493.53 1696.09 499.13L1695.05 498.79C1695.08 499.777 1695.22 500.753 1695.47 501.72C1695.93 501.07 1696.33 500.36 1696.7 499.65C1696.36 497.86 1697.07 496.19 1697.5 494.51C1701.27 482.14 1705.2 469.8 1710.02 457.8C1709.59 457.56 1708.71 457.07 1708.29 456.83C1708.4 452.41 1708.65 448 1709.39 443.65C1709.81 443.26 1710.65 442.47 1711.07 442.07C1711.02 435.22 1711.24 428.36 1711.07 421.5C1710.78 418.6 1710.62 415.49 1709.03 412.96C1706.28 407.17 1702.87 401.63 1699.59 396.13ZM1781.17 404.27C1778.92 409.57 1775.58 414.69 1775.46 420.63C1775.22 427.86 1775.52 435.11 1775.62 442.36C1775.42 448.1 1776.79 453.71 1777.8 459.32C1781.38 467.71 1784.12 476.55 1788.77 484.42C1789.59 474.54 1791.16 464.69 1790.86 454.74C1790.77 451.85 1789.47 449.11 1789.83 446.2C1790.49 430.41 1787.84 414.75 1783.97 399.5C1782.47 400.69 1781.99 402.63 1781.17 404.27ZM1740.74 648.26C1741.58 662.77 1742.54 677.31 1742.51 691.87C1742.55 698.53 1741.6 705.19 1742.09 711.86C1742.91 713.91 1743.76 715.97 1745.47 717.52C1746.16 715.37 1745.7 713.08 1745.79 710.87C1745.39 690.02 1747.41 669.26 1748.07 648.45C1745.62 648.49 1743.17 648.427 1740.74 648.26Z" fill="#120C14"/>
</g>
<defs>
<clipPath id="clip0_99_4">
<rect width="1920" height="727" fill="white"/>
</clipPath>
</defs>
</svg>
