<svg width="290" height="290" viewBox="0 0 290 290" fill="none" xmlns="http://www.w3.org/2000/svg">
<path d="M86.8737 12.2011C124.74 -4.83894 169.914 -3.83894 207.314 14.0011C239.9 29.4544 266.154 57.6011 279.567 91.0544C289.167 115.028 291.86 141.494 288.18 167.014C283.594 197.401 268.74 226.214 246.78 247.761C228.86 265.161 206.58 278.174 182.354 284.508C136.62 296.988 84.5803 285.388 49.407 253.334C38.1403 244.508 29.527 232.814 21.6203 221.014C8.26033 199.294 0.287002 174.108 0.0870024 148.548C-0.366331 139.641 1.15367 130.734 0.0603351 121.854C0.433668 124.454 0.846999 127.068 1.287 129.668C0.900333 120.774 3.59367 112.241 5.767 103.734C17.5403 63.2677 47.9803 28.5877 86.8737 12.2011ZM123.714 22.0944C118.567 21.8277 113.714 23.4811 108.9 25.0277C64.8603 37.7877 29.647 76.7077 21.7803 121.921C19.2603 134.134 19.767 146.734 20.367 159.134C24.127 188.681 38.1937 217.001 60.5003 236.868C86.9003 261.161 124.087 273.294 159.7 268.534C203.86 264.054 243.887 233.374 260.607 192.374C271.007 167.361 272.714 138.921 266.007 112.734C255.474 72.4944 223.514 38.7077 183.914 25.9877C178.06 24.4144 172.38 21.7611 166.194 22.0677C158.114 19.1211 149.314 19.8411 140.86 19.6944C135.127 20.0811 129.127 19.8811 123.714 22.0944Z" fill="#FF003C"/>
<path d="M105.954 46.8945C116.181 29.2945 138.874 20.7611 158.247 26.8145C165.941 29.6678 173.141 33.9211 178.847 39.8811C187.634 50.2145 192.421 64.4278 189.661 77.9078C188.047 88.6278 182.301 98.8678 173.634 105.454C168.634 110.268 161.807 112.108 155.701 115.001C156.167 136.761 155.914 158.548 155.914 180.321C164.301 172.694 171.981 164.308 180.207 156.508C176.421 149.108 173.167 140.948 173.661 132.468C173.834 115.201 184.754 98.4145 200.714 91.5878C210.261 87.2011 221.327 86.3745 231.447 89.1611C246.047 93.4945 258.581 105.161 262.821 119.934C263.847 124.054 264.807 128.228 265.194 132.454C264.527 145.534 259.341 158.908 248.954 167.308C236.021 178.881 216.101 182.214 200.501 174.228C198.541 173.428 195.727 171.228 194.141 173.748C181.501 186.428 168.634 198.854 156.181 211.721C155.594 225.668 156.274 239.761 156.034 253.761C155.727 257.508 157.047 261.708 154.887 265.081C148.341 265.028 141.741 265.694 135.221 264.828C134.887 264.454 134.194 263.694 133.861 263.308C133.527 246.108 133.967 228.881 133.741 211.668C120.474 198.681 107.527 185.334 94.1407 172.494C90.3941 173.241 87.1541 175.374 83.6474 176.748C80.4074 177.014 77.3674 178.241 74.154 178.574C57.7407 179.748 40.7007 171.374 32.114 157.214C27.354 150.308 25.6874 141.881 24.5674 133.721C25.2607 120.974 30.1007 107.908 40.1007 99.5211C55.4474 84.3345 82.1807 83.6411 98.6074 97.4678C106.487 103.588 112.247 112.374 114.581 122.068C118.434 133.614 115.034 146.121 109.567 156.561C117.954 164.201 125.434 172.801 133.887 180.361C133.901 160.374 133.647 140.401 133.914 120.428C133.981 118.134 133.741 115.868 133.327 113.641C130.767 113.334 128.154 113.001 125.914 111.641C113.314 105.761 103.394 94.1078 100.474 80.4011C98.6741 69.0411 99.5007 56.7345 105.954 46.8945Z" fill="#FF003C"/>
</svg>
